<svg xmlns="http://www.w3.org/2000/svg" xmlns:xlink="http://www.w3.org/1999/xlink" width="128" height="128"><defs><linearGradient id="m" gradientUnits="userSpaceOnUse" x1="8.005" y1="252" x2="120.005" y2="252" gradientTransform="translate(0 -172)"><stop offset="0" stop-color="#53bde0"/><stop offset=".036" stop-color="#b4e2f1"/><stop offset=".07" stop-color="#53bde0"/><stop offset=".215" stop-color="#24a0c9"/><stop offset=".25" stop-color="#4ab4d7"/><stop offset=".25" stop-color="#2589a9"/><stop offset=".357" stop-color="#40b6dd"/><stop offset=".357" stop-color="#239bc3"/><stop offset=".913" stop-color="#53bde0"/><stop offset=".954" stop-color="#8ed4eb"/><stop offset="1" stop-color="#53bde0"/></linearGradient><linearGradient id="b" gradientUnits="userSpaceOnUse" x1="8.005" y1="252" x2="120.005" y2="252" gradientTransform="translate(0 -172)"><stop offset="0" stop-color="#53bde0"/><stop offset=".036" stop-color="#b4e2f1"/><stop offset=".07" stop-color="#53bde0"/><stop offset=".215" stop-color="#24a0c9"/><stop offset=".25" stop-color="#4ab4d7"/><stop offset=".25" stop-color="#2589a9"/><stop offset=".357" stop-color="#40b6dd"/><stop offset=".357" stop-color="#239bc3"/><stop offset=".913" stop-color="#53bde0"/><stop offset=".954" stop-color="#8ed4eb"/><stop offset="1" stop-color="#53bde0"/></linearGradient><linearGradient id="c" gradientUnits="userSpaceOnUse" x1="87" y1="267" x2="119.505" y2="267" gradientTransform="translate(0 -172)"><stop offset="0" stop-color="#1a5fb4"/><stop offset=".75" stop-color="#1a5fb4"/><stop offset=".888" stop-color="#3e88e3"/><stop offset="1" stop-color="#1a5fb4"/></linearGradient><linearGradient id="n" gradientUnits="userSpaceOnUse" x1="87" y1="267" x2="119.505" y2="267" gradientTransform="translate(0 -172)"><stop offset="0" stop-color="#1a5fb4"/><stop offset=".75" stop-color="#1a5fb4"/><stop offset=".888" stop-color="#3e88e3"/><stop offset="1" stop-color="#1a5fb4"/></linearGradient><linearGradient id="i" gradientUnits="userSpaceOnUse" x1="300" y1="235" x2="428" y2="235" gradientTransform="matrix(0 .37 -.98462 0 295.385 -30.36)"><stop offset="0" stop-color="#f9f06b"/><stop offset="1" stop-color="#f5c211"/></linearGradient><clipPath id="a"><path d="M0 0h128v128H0z"/></clipPath><clipPath id="d"><path d="M0 0h128v128H0z"/></clipPath><clipPath id="j"><path d="M0 0h128v128H0z"/></clipPath><clipPath id="h"><path d="M0 0h128v128H0z"/></clipPath><g id="k" clip-path="url(#h)"><path d="M128 80.64V128H0V80.64zm0 0" fill="url(#i)"/><path d="M13.309 80.64L60.664 128H81.88l-47.36-47.36zm42.421 0L103.094 128h21.215L76.945 80.64zm42.43 0L128 110.48V89.27l-8.629-8.63zM0 88.548v21.215L18.238 128h21.215zm0 0"/></g><g id="f" clip-path="url(#a)"><path d="M32.004 36h80a8 8 0 018 8v64a8 8 0 01-8 8h-80a8 8 0 01-8-8V44a8 8 0 018-8zm0 0" fill="#1a5fb4"/><path d="M16.004 28c-4.43 0-8 3.566-8 8v72c0 4.434 3.57 8 8 8h16L32 128h4l12.004-12h64c4.433 0 8-3.566 8-8V36c0-4.434-3.567-8-8-8zm0 0" fill="url(#b)"/><path d="M86.156 32v84h25.848c4.433 0 8-3.566 8-8V40c0-4.434-3.567-8-8-8zm0 0" fill="url(#c)"/><path d="M16.5 27.934h95.504a8 8 0 018 8V104a8 8 0 01-8 8H16.5a8 8 0 01-8-8V35.934a8 8 0 018-8zm0 0" fill="#3584e4"/><path d="M32.004 104L32 124h4l20.004-20zm0 0" fill-rule="evenodd" fill="#81dffe"/><path d="M16.004 28c-4.43 0-8 3.566-8 8v68c0 4.434 3.57 8 8 8h70.14a119.205 119.205 0 004.637-3.656c14.598-12.696 19.04-36.121 5.504-51.262-9.258-10.352-26.187-13.46-36.969-3.55-7.175 6.593-9.3 18.53-2.191 26 4.586 4.812 12.8 6.214 17.832 1.245 3.125-3.093 4.02-8.57.637-11.836-2.012-1.941-5.543-2.484-7.582-.257-1.164 1.254-1.473 3.433-.07 4.636.75.64 2.027.805 2.699-.039.332-.418.421-1.12-.067-1.465-.222-.148-.578-.18-.73.07-.043.098-.051.266.062.325.043.02.13.023.13-.023v-.04c-.067-.011 0-.03 0-.035.038-.02.105.032.105.07.035.126-.086.235-.2.262-.293.067-.492-.21-.562-.468-.098-.579.457-1.024.984-1.086 1.07-.125 1.864.898 1.934 1.875.144 1.847-1.617 3.168-3.32 3.242-3.016.133-5.11-2.742-5.176-5.54-.082-4.698 4.426-7.945 8.824-7.917 7.078.039 11.895 6.836 11.73 13.48-.257 10.305-10.21 17.242-19.949 16.836-14.636-.61-24.41-14.77-23.625-28.633 0-18.808 18.934-35.105 37.11-36.234zm0 0" fill="#81dffe"/></g><g id="o" clip-path="url(#j)"><use xlink:href="#k" mask="url(#l)"/></g><g id="g" clip-path="url(#d)" filter="url(#e)"><use xlink:href="#f"/></g><mask id="l"><g filter="url(#e)"><path fill-opacity=".8" d="M0 0h128v128H0z"/></g></mask><mask id="p"><use xlink:href="#g"/></mask><filter id="e" filterUnits="objectBoundingBox" x="0%" y="0%" width="100%" height="100%"><feColorMatrix in="SourceGraphic" values="0 0 0 0 1 0 0 0 0 1 0 0 0 0 1 0 0 0 1 0"/></filter></defs><path d="M32.004 36h80a8 8 0 018 8v64a8 8 0 01-8 8h-80a8 8 0 01-8-8V44a8 8 0 018-8zm0 0" fill="#1a5fb4"/><path d="M16.004 28c-4.43 0-8 3.566-8 8v72c0 4.434 3.57 8 8 8h16L32 128h4l12.004-12h64c4.433 0 8-3.566 8-8V36c0-4.434-3.567-8-8-8zm0 0" fill="url(#m)"/><path d="M86.156 32v84h25.848c4.433 0 8-3.566 8-8V40c0-4.434-3.567-8-8-8zm0 0" fill="url(#n)"/><path d="M16.5 27.934h95.504a8 8 0 018 8V104a8 8 0 01-8 8H16.5a8 8 0 01-8-8V35.934a8 8 0 018-8zm0 0" fill="#3584e4"/><path d="M32.004 104L32 124h4l20.004-20zm0 0" fill-rule="evenodd" fill="#81dffe"/><path d="M16.004 28c-4.43 0-8 3.566-8 8v68c0 4.434 3.57 8 8 8h70.14a119.205 119.205 0 004.637-3.656c14.598-12.696 19.04-36.121 5.504-51.262-9.258-10.352-26.187-13.46-36.969-3.55-7.175 6.593-9.3 18.53-2.191 26 4.586 4.812 12.8 6.214 17.832 1.245 3.125-3.093 4.02-8.57.637-11.836-2.012-1.941-5.543-2.484-7.582-.257-1.164 1.254-1.473 3.433-.07 4.636.75.64 2.027.805 2.699-.039.332-.418.421-1.12-.067-1.465-.222-.148-.578-.18-.73.07-.043.098-.051.266.062.325.043.02.13.023.13-.023v-.04c-.067-.011 0-.03 0-.035.038-.02.105.032.105.07.035.126-.086.235-.2.262-.293.067-.492-.21-.562-.468-.098-.579.457-1.024.984-1.086 1.07-.125 1.864.898 1.934 1.875.144 1.847-1.617 3.168-3.32 3.242-3.016.133-5.11-2.742-5.176-5.54-.082-4.698 4.426-7.945 8.824-7.917 7.078.039 11.895 6.836 11.73 13.48-.257 10.305-10.21 17.242-19.949 16.836-14.636-.61-24.41-14.77-23.625-28.633 0-18.808 18.934-35.105 37.11-36.234zm0 0" fill="#81dffe"/><use xlink:href="#o" mask="url(#p)"/></svg>