<?xml version="1.0" encoding="UTF-8" standalone="no"?>
<svg
   xmlns:dc="http://purl.org/dc/elements/1.1/"
   xmlns:cc="http://creativecommons.org/ns#"
   xmlns:rdf="http://www.w3.org/1999/02/22-rdf-syntax-ns#"
   xmlns:svg="http://www.w3.org/2000/svg"
   xmlns="http://www.w3.org/2000/svg"
   xmlns:sodipodi="http://sodipodi.sourceforge.net/DTD/sodipodi-0.dtd"
   xmlns:inkscape="http://www.inkscape.org/namespaces/inkscape"
   width="16"
   height="16"
   version="1.0"
   id="svg10"
   sodipodi:docname="org.fedoraproject.AnacondaInstaller-symbolic.svg"
   inkscape:version="1.0.2 (e86c870879, 2021-01-15)">
  <metadata
     id="metadata16">
    <rdf:RDF>
      <cc:Work
         rdf:about="">
        <dc:format>image/svg+xml</dc:format>
        <dc:type
           rdf:resource="http://purl.org/dc/dcmitype/StillImage" />
        <dc:title></dc:title>
      </cc:Work>
    </rdf:RDF>
  </metadata>
  <defs
     id="defs14" />
  <sodipodi:namedview
     pagecolor="#ffffff"
     bordercolor="#666666"
     borderopacity="1"
     objecttolerance="10"
     gridtolerance="10"
     guidetolerance="10"
     inkscape:pageopacity="0"
     inkscape:pageshadow="2"
     inkscape:window-width="2560"
     inkscape:window-height="1369"
     id="namedview12"
     showgrid="false"
     inkscape:zoom="45.343222"
     inkscape:cx="8"
     inkscape:cy="8.0064595"
     inkscape:window-x="2560"
     inkscape:window-y="34"
     inkscape:window-maximized="1"
     inkscape:current-layer="svg10" />
  <g
     transform="matrix(.2 0 0 .2 -25.6 -111.1)"
     stroke-width="5"
     color="#000"
     id="g8">
    <rect
       ry="4"
       rx="4"
       y="625.5"
       x="138"
       height="8"
       width="59.946"
       style="marker:none"
       overflow="visible"
       opacity=".257"
       id="rect4" />
    <rect
       ry="4"
       rx="4"
       y="625.5"
       x="138"
       height="8"
       width="38.125"
       style="marker:none"
       overflow="visible"
       id="rect6" />
  </g>
  <path
     id="path28"
     style="fill:#000000;fill-opacity:1;fill-rule:nonzero;stroke:none;stroke-width:1.33333"
     d="m 8.0020476,0.964435 c -3.3240934,0 -6.0189579,2.689907 -6.0215003,6.009145 v 4.653578 c 0.00187,0.753371 0.6137513,1.363805 1.3689144,1.363805 0.00187,0 0.00477,-2.35e-4 0.00656,-2.35e-4 v 2.35e-4 h 4.6481624 c 3.3244709,-0.0019 6.0193649,-2.692915 6.0193649,-6.013188 0,-3.321025 -2.695903,-6.013263 -6.0215004,-6.013263 z M 9.2226995,3.43861 v 7.7e-5 c 1.0112185,0 1.9661605,0.774318 1.9661605,1.840779 0,0.09887 -0.0011,0.197277 -0.01693,0.309796 -0.02798,0.283641 -0.287396,0.486923 -0.570019,0.446847 -0.282903,-0.04046 -0.47501,-0.307971 -0.422442,-0.588322 0.0045,-0.03161 0.0066,-0.08196 0.0066,-0.168321 0,-0.604541 -0.4945538,-0.83825 -0.963327,-0.83825 -0.4684928,0 -0.8907969,0.392402 -0.8923991,0.837106 v 1.539447 l 0.869214,-0.0058 c 0.6785703,-0.01402 0.6855131,1.007329 0.00694,1.002528 l -0.8761542,0.0055 -0.00625,1.436105 C 8.2191988,10.383244 7.2582575,11.284726 6.1038451,11.284726 4.8802852,11.284726 3.870903,10.285135 3.870903,9.060249 3.907737,7.800176 4.9160163,6.809338 6.1826288,6.821206 l 0.7055451,-0.0049 V 7.81731 L 6.1767562,7.82351 C 5.4804735,7.84402 4.885139,8.315571 4.8737363,9.060101 c 0,0.678768 0.5493755,1.221949 1.2304902,1.221949 0.6804556,0 1.2237024,-0.494317 1.2237024,-1.220499 V 5.274975 C 7.3282413,5.204795 7.3315889,5.148559 7.3396739,5.071038 7.4540404,4.144562 8.2835548,3.438545 9.2227037,3.438545 Z" />
</svg>
