<svg xmlns="http://www.w3.org/2000/svg" width="16" height="16"><path d="M1.984 1c-1.109 0-2 .848-2 1.902v8.196c0 1.054.891 1.902 2 1.902H3v3h.984l3-3h7c1.106 0 2-.848 2-1.902V2.902c0-1.054-.894-1.902-2-1.902zm4.079 1h7.921a1 1 0 011 1v8a1 1 0 01-1 1h-1.812c1.707-2.035 2.066-5.145.2-7.234-1.43-1.598-4.04-2.079-5.704-.547-1.106 1.015-1.434 2.855-.336 4.008.707.742 1.973.957 2.75.191.48-.477.621-1.32.098-1.824-.309-.301-.856-.383-1.168-.04-.18.192-.227.528-.012.716.117.097.313.12.418-.008.047-.063.062-.172-.012-.227-.035-.023-.09-.027-.113.012-.008.016-.008.039.012.05.008.005.027-.003.02-.003v-.008c-.012-.004 0-.004 0-.008.003 0 .015.008.015.012.004.02-.016.035-.031.043-.047.008-.079-.035-.09-.074-.016-.09.07-.157.152-.168.164-.02.29.14.3.293.02.28-.25.488-.51.5-.466.02-.79-.426-.802-.86-.011-.722.684-1.222 1.364-1.219 1.09.004 1.836 1.051 1.808 2.079-.039 1.59-1.574 2.66-3.078 2.597-2.254-.094-3.762-2.277-3.64-4.418.09-1.648.988-2.988 2.25-3.863zm0 0" fill="#68676b"/></svg>